<?xml version="1.0" standalone="no"?><!DOCTYPE svg PUBLIC "-//W3C//DTD SVG 1.1//EN" "http://www.w3.org/Graphics/SVG/1.1/DTD/svg11.dtd"><svg xmlns:xlink="http://www.w3.org/1999/xlink" height="400" width="600" xmlns="http://www.w3.org/2000/svg" version="1.1"><desc>Created with Highcharts 3.0.7</desc><defs><clipPath id="highcharts-7"><rect height="275" width="524" y="0" x="0" fill="none"></rect></clipPath></defs><rect height="400" width="600" y="0" x="0" fill="#FFFFFF" ry="0" rx="0"></rect><g  class="highcharts-grid"></g><g  class="highcharts-grid"><path opacity="1"  stroke-width="1" stroke="#C0C0C0" d="M 66 267.5 L 590 267.5" fill="none"></path><path opacity="1"  stroke-width="1" stroke="#C0C0C0" d="M 66 199.5 L 590 199.5" fill="none"></path><path opacity="1"  stroke-width="1" stroke="#C0C0C0" d="M 66 130.5 L 590 130.5" fill="none"></path><path opacity="1"  stroke-width="1" stroke="#C0C0C0" d="M 66 60.5 L 590 60.5" fill="none"></path><path opacity="1"  stroke-width="1" stroke="#C0C0C0" d="M 66 336.5 L 590 336.5" fill="none"></path></g><g  class="highcharts-axis"><path opacity="1" stroke-width="1" stroke="#C0D0E0" d="M 131.5 336 L 131.5 341" fill="none"></path><path opacity="1" stroke-width="1" stroke="#C0D0E0" d="M 174.5 336 L 174.5 341" fill="none"></path><path opacity="1" stroke-width="1" stroke="#C0D0E0" d="M 218.5 336 L 218.5 341" fill="none"></path><path opacity="1" stroke-width="1" stroke="#C0D0E0" d="M 262.5 336 L 262.5 341" fill="none"></path><path opacity="1" stroke-width="1" stroke="#C0D0E0" d="M 305.5 336 L 305.5 341" fill="none"></path><path opacity="1" stroke-width="1" stroke="#C0D0E0" d="M 349.5 336 L 349.5 341" fill="none"></path><path opacity="1" stroke-width="1" stroke="#C0D0E0" d="M 392.5 336 L 392.5 341" fill="none"></path><path opacity="1" stroke-width="1" stroke="#C0D0E0" d="M 436.5 336 L 436.5 341" fill="none"></path><path opacity="1" stroke-width="1" stroke="#C0D0E0" d="M 480.5 336 L 480.5 341" fill="none"></path><path opacity="1" stroke-width="1" stroke="#C0D0E0" d="M 524.5 336 L 524.5 341" fill="none"></path><path opacity="1" stroke-width="1" stroke="#C0D0E0" d="M 567.5 336 L 567.5 341" fill="none"></path><path opacity="1" stroke-width="1" stroke="#C0D0E0" d="M 87.5 336 L 87.5 341" fill="none"></path><path visibility="visible"  stroke-width="1" stroke="#C0D0E0" d="M 66 336.5 L 590 336.5" fill="none"></path></g><g  class="highcharts-axis"><text visibility="visible" transform="translate(0,0) rotate(270 24.66796875 198.5)" text-anchor="middle"  style="font-family:'lucida grande', 'lucida sans unicode', verdana, arial, helvetica, sans-serif;font-size:12px;color:#4d759e;font-weight:bold;fill:#4d759e;" y="198.5" x="24.66796875"><tspan x="24.66796875">Odstotki</tspan></text></g><g  class="highcharts-series-group"><g clip-path="url(#highcharts-7)" transform="translate(66,61) scale(1 1)"  visibility="visible" class="highcharts-series"><path  fill-opacity="0.75" d="M 21.833333333333332 0 L 65.5 0 L 109.16666666666666 0 L 152.83333333333334 0 L 196.5 0 L 240.16666666666666 0 L 283.8333333333333 0 L 327.49999999999994 0 L 371.16666666666663 0 L 414.8333333333333 0 L 458.49999999999994 0 L 502.16666666666663 0 502.16666666666663 83.75299760191925 458.49999999999994 82.61554621848825 414.8333333333333 85.9375 371.16666666666663 84.24692622950724 327.49999999999994 112.81284004352449 283.8333333333333 118.08666017526676 240.16666666666666 101.4094269870605 196.5 44.3355119825695 152.83333333333334 24.844236760125767 109.16666666666666 13.033175355450226 65.5 0 21.833333333333332 27.5" fill="rgb(47,126,216)"></path><path stroke-linecap="round" stroke-linejoin="round"  stroke-width="1" stroke="#ffffff" d="M 21.833333333333332 0 L 65.5 0 L 109.16666666666666 0 L 152.83333333333334 0 L 196.5 0 L 240.16666666666666 0 L 283.8333333333333 0 L 327.49999999999994 0 L 371.16666666666663 0 L 414.8333333333333 0 L 458.49999999999994 0 L 502.16666666666663 0" fill="none"></path><path style="" class=" highcharts-tracker"  stroke-width="21" stroke="rgb(192,192,192)" stroke-opacity="0.0001" visibility="visible" stroke-linejoin="round" d="M 11.833333333333332 0 L 21.833333333333332 0 L 65.5 0 L 109.16666666666666 0 L 152.83333333333334 0 L 196.5 0 L 240.16666666666666 0 L 283.8333333333333 0 L 327.49999999999994 0 L 371.16666666666663 0 L 414.8333333333333 0 L 458.49999999999994 0 L 502.16666666666663 0 L 512.1666666666666 0" fill="none"></path></g><g clip-path="none" style="" transform="translate(66,61) scale(1 1)"  visibility="visible" class="highcharts-markers highcharts-tracker"><path stroke-width="1" stroke="#ffffff" d="M 502 -4 C 507.328 -4 507.328 4 502 4 C 496.672 4 496.672 -4 502 -4 Z" fill="#2f7ed8"></path><path stroke-width="1" stroke="#ffffff" d="M 458 -4 C 463.328 -4 463.328 4 458 4 C 452.672 4 452.672 -4 458 -4 Z" fill="#2f7ed8"></path><path stroke-width="1" stroke="#ffffff" d="M 414 -4 C 419.328 -4 419.328 4 414 4 C 408.672 4 408.672 -4 414 -4 Z" fill="#2f7ed8"></path><path stroke-width="1" stroke="#ffffff" d="M 371 -4 C 376.328 -4 376.328 4 371 4 C 365.672 4 365.672 -4 371 -4 Z" fill="#2f7ed8"></path><path stroke-width="1" stroke="#ffffff" d="M 327 -4 C 332.328 -4 332.328 4 327 4 C 321.672 4 321.672 -4 327 -4 Z" fill="#2f7ed8"></path><path stroke-width="1" stroke="#ffffff" d="M 283 -4 C 288.328 -4 288.328 4 283 4 C 277.672 4 277.672 -4 283 -4 Z" fill="#2f7ed8"></path><path stroke-width="1" stroke="#ffffff" d="M 240 -4 C 245.328 -4 245.328 4 240 4 C 234.672 4 234.672 -4 240 -4 Z" fill="#2f7ed8"></path><path stroke-width="1" stroke="#ffffff" d="M 196 -4 C 201.328 -4 201.328 4 196 4 C 190.672 4 190.672 -4 196 -4 Z" fill="#2f7ed8"></path><path stroke-width="1" stroke="#ffffff" d="M 152 -4 C 157.328 -4 157.328 4 152 4 C 146.672 4 146.672 -4 152 -4 Z" fill="#2f7ed8"></path><path stroke-width="1" stroke="#ffffff" d="M 109 -4 C 114.328 -4 114.328 4 109 4 C 103.672 4 103.672 -4 109 -4 Z" fill="#2f7ed8"></path><path stroke-width="1" stroke="#ffffff" d="M 65 -4 C 70.328 -4 70.328 4 65 4 C 59.672 4 59.672 -4 65 -4 Z" fill="#2f7ed8"></path><path stroke-width="1" stroke="#ffffff" d="M 21 -4 C 26.328 -4 26.328 4 21 4 C 15.672 4 15.672 -4 21 -4 Z" fill="#2f7ed8"></path></g><g clip-path="url(#highcharts-7)" transform="translate(66,61) scale(1 1)"  visibility="visible" class="highcharts-series"><path  fill-opacity="0.75" d="M 21.833333333333332 27.5 L 65.5 0 L 109.16666666666666 13.033175355450226 L 152.83333333333334 24.844236760125767 L 196.5 44.3355119825695 L 240.16666666666666 101.4094269870605 L 283.8333333333333 118.08666017526676 L 327.49999999999994 112.81284004352449 L 371.16666666666663 84.24692622950724 L 414.8333333333333 85.9375 L 458.49999999999994 82.61554621848825 L 502.16666666666663 83.75299760191925 502.16666666666663 85.73141486810448 458.49999999999994 84.34873949579824 414.8333333333333 87.70032051282152 371.16666666666663 101.43442622950727 327.49999999999994 133.460282916213 283.8333333333333 141.1148977604685 240.16666666666666 140.04158964879875 196.5 70.09803921568525 152.83333333333334 50.54517133956398 109.16666666666666 57.345971563980015 65.5 144.73684210526199 21.833333333333332 123.75" fill="rgb(13,35,58)"></path><path stroke-linecap="round" stroke-linejoin="round"  stroke-width="1" stroke="#ffffff" d="M 21.833333333333332 27.5 L 65.5 0 L 109.16666666666666 13.033175355450226 L 152.83333333333334 24.844236760125767 L 196.5 44.3355119825695 L 240.16666666666666 101.4094269870605 L 283.8333333333333 118.08666017526676 L 327.49999999999994 112.81284004352449 L 371.16666666666663 84.24692622950724 L 414.8333333333333 85.9375 L 458.49999999999994 82.61554621848825 L 502.16666666666663 83.75299760191925" fill="none"></path><path style="" class=" highcharts-tracker"  stroke-width="21" stroke="rgb(192,192,192)" stroke-opacity="0.0001" visibility="visible" stroke-linejoin="round" d="M 11.833333333333332 27.5 L 21.833333333333332 27.5 L 65.5 0 L 109.16666666666666 13.033175355450226 L 152.83333333333334 24.844236760125767 L 196.5 44.3355119825695 L 240.16666666666666 101.4094269870605 L 283.8333333333333 118.08666017526676 L 327.49999999999994 112.81284004352449 L 371.16666666666663 84.24692622950724 L 414.8333333333333 85.9375 L 458.49999999999994 82.61554621848825 L 502.16666666666663 83.75299760191925 L 512.1666666666666 83.75299760191925" fill="none"></path></g><g clip-path="none" style="" transform="translate(66,61) scale(1 1)"  visibility="visible" class="highcharts-markers highcharts-tracker"><path stroke-width="1" stroke="#ffffff" d="M 502 79.75299760191925 L 506 83.75299760191925 502 87.75299760191925 498 83.75299760191925 Z" fill="#0d233a"></path><path stroke-width="1" stroke="#ffffff" d="M 458 78.61554621848825 L 462 82.61554621848825 458 86.61554621848825 454 82.61554621848825 Z" fill="#0d233a"></path><path stroke-width="1" stroke="#ffffff" d="M 414 81.9375 L 418 85.9375 414 89.9375 410 85.9375 Z" fill="#0d233a"></path><path stroke-width="1" stroke="#ffffff" d="M 371 80.24692622950724 L 375 84.24692622950724 371 88.24692622950724 367 84.24692622950724 Z" fill="#0d233a"></path><path stroke-width="1" stroke="#ffffff" d="M 327 108.81284004352449 L 331 112.81284004352449 327 116.81284004352449 323 112.81284004352449 Z" fill="#0d233a"></path><path stroke-width="1" stroke="#ffffff" d="M 283 114.08666017526676 L 287 118.08666017526676 283 122.08666017526676 279 118.08666017526676 Z" fill="#0d233a"></path><path stroke-width="1" stroke="#ffffff" d="M 240 97.4094269870605 L 244 101.4094269870605 240 105.4094269870605 236 101.4094269870605 Z" fill="#0d233a"></path><path stroke-width="1" stroke="#ffffff" d="M 196 40.3355119825695 L 200 44.3355119825695 196 48.3355119825695 192 44.3355119825695 Z" fill="#0d233a"></path><path stroke-width="1" stroke="#ffffff" d="M 152 20.844236760125767 L 156 24.844236760125767 152 28.844236760125767 148 24.844236760125767 Z" fill="#0d233a"></path><path stroke-width="1" stroke="#ffffff" d="M 109 9.033175355450226 L 113 13.033175355450226 109 17.033175355450226 105 13.033175355450226 Z" fill="#0d233a"></path><path stroke-width="1" stroke="#ffffff" d="M 65 -4 L 69 0 65 4 61 0 Z" fill="#0d233a"></path><path stroke-width="1" stroke="#ffffff" d="M 21 23.5 L 25 27.5 21 31.5 17 27.5 Z" fill="#0d233a"></path></g><g clip-path="url(#highcharts-7)" transform="translate(66,61) scale(1 1)"  visibility="visible" class="highcharts-series"><path  fill-opacity="0.75" d="M 21.833333333333332 123.75 L 65.5 144.73684210526199 L 109.16666666666666 57.345971563980015 L 152.83333333333334 50.54517133956398 L 196.5 70.09803921568525 L 240.16666666666666 140.04158964879875 L 283.8333333333333 141.1148977604685 L 327.49999999999994 133.460282916213 L 371.16666666666663 101.43442622950727 L 414.8333333333333 87.70032051282152 L 458.49999999999994 84.34873949579824 L 502.16666666666663 85.73141486810448 502.16666666666663 184.65227817745773 458.49999999999994 176.20798319327776 414.8333333333333 164.82371794871676 371.16666666666663 167.36680327868876 327.49999999999994 193.00870511425524 283.8333333333333 216.893865628044 240.16666666666666 219.085027726433 196.5 177.94117647058778 152.83333333333334 204.750778816199 109.16666666666666 185.071090047393 65.5 191.77631578947324 21.833333333333332 187.91666666666575" fill="rgb(139,188,33)"></path><path stroke-linecap="round" stroke-linejoin="round"  stroke-width="1" stroke="#ffffff" d="M 21.833333333333332 123.75 L 65.5 144.73684210526199 L 109.16666666666666 57.345971563980015 L 152.83333333333334 50.54517133956398 L 196.5 70.09803921568525 L 240.16666666666666 140.04158964879875 L 283.8333333333333 141.1148977604685 L 327.49999999999994 133.460282916213 L 371.16666666666663 101.43442622950727 L 414.8333333333333 87.70032051282152 L 458.49999999999994 84.34873949579824 L 502.16666666666663 85.73141486810448" fill="none"></path><path style="" class=" highcharts-tracker"  stroke-width="21" stroke="rgb(192,192,192)" stroke-opacity="0.0001" visibility="visible" stroke-linejoin="round" d="M 11.833333333333332 123.75 L 21.833333333333332 123.75 L 65.5 144.73684210526199 L 109.16666666666666 57.345971563980015 L 152.83333333333334 50.54517133956398 L 196.5 70.09803921568525 L 240.16666666666666 140.04158964879875 L 283.8333333333333 141.1148977604685 L 327.49999999999994 133.460282916213 L 371.16666666666663 101.43442622950727 L 414.8333333333333 87.70032051282152 L 458.49999999999994 84.34873949579824 L 502.16666666666663 85.73141486810448 L 512.1666666666666 85.73141486810448" fill="none"></path></g><g clip-path="none" style="" transform="translate(66,61) scale(1 1)"  visibility="visible" class="highcharts-markers highcharts-tracker"><path stroke-width="1" stroke="#ffffff" d="M 498 81.73141486810448 L 506 81.73141486810448 506 89.73141486810448 498 89.73141486810448 Z" fill="#8bbc21"></path><path stroke-width="1" stroke="#ffffff" d="M 454 80.34873949579824 L 462 80.34873949579824 462 88.34873949579824 454 88.34873949579824 Z" fill="#8bbc21"></path><path stroke-width="1" stroke="#ffffff" d="M 410 83.70032051282152 L 418 83.70032051282152 418 91.70032051282152 410 91.70032051282152 Z" fill="#8bbc21"></path><path stroke-width="1" stroke="#ffffff" d="M 367 97.43442622950727 L 375 97.43442622950727 375 105.43442622950727 367 105.43442622950727 Z" fill="#8bbc21"></path><path stroke-width="1" stroke="#ffffff" d="M 323 129.460282916213 L 331 129.460282916213 331 137.460282916213 323 137.460282916213 Z" fill="#8bbc21"></path><path stroke-width="1" stroke="#ffffff" d="M 279 137.1148977604685 L 287 137.1148977604685 287 145.1148977604685 279 145.1148977604685 Z" fill="#8bbc21"></path><path stroke-width="1" stroke="#ffffff" d="M 236 136.04158964879875 L 244 136.04158964879875 244 144.04158964879875 236 144.04158964879875 Z" fill="#8bbc21"></path><path stroke-width="1" stroke="#ffffff" d="M 192 66.09803921568525 L 200 66.09803921568525 200 74.09803921568525 192 74.09803921568525 Z" fill="#8bbc21"></path><path stroke-width="1" stroke="#ffffff" d="M 148 46.54517133956398 L 156 46.54517133956398 156 54.54517133956398 148 54.54517133956398 Z" fill="#8bbc21"></path><path stroke-width="1" stroke="#ffffff" d="M 105 53.345971563980015 L 113 53.345971563980015 113 61.345971563980015 105 61.345971563980015 Z" fill="#8bbc21"></path><path stroke-width="1" stroke="#ffffff" d="M 61 140.73684210526199 L 69 140.73684210526199 69 148.73684210526199 61 148.73684210526199 Z" fill="#8bbc21"></path><path stroke-width="1" stroke="#ffffff" d="M 17 119.75 L 25 119.75 25 127.75 17 127.75 Z" fill="#8bbc21"></path></g><g clip-path="url(#highcharts-7)" transform="translate(66,61) scale(1 1)"  visibility="visible" class="highcharts-series"><path  fill-opacity="0.75" d="M 21.833333333333332 187.91666666666575 L 65.5 191.77631578947324 L 109.16666666666666 185.071090047393 L 152.83333333333334 204.750778816199 L 196.5 177.94117647058778 L 240.16666666666666 219.085027726433 L 283.8333333333333 216.893865628044 L 327.49999999999994 193.00870511425524 L 371.16666666666663 167.36680327868876 L 414.8333333333333 164.82371794871676 L 458.49999999999994 176.20798319327776 L 502.16666666666663 184.65227817745773 502.16666666666663 275 458.49999999999994 275 414.8333333333333 275 371.16666666666663 275 327.49999999999994 275 283.8333333333333 275 240.16666666666666 275 196.5 275 152.83333333333334 275 109.16666666666666 275 65.5 275 21.833333333333332 275" fill="rgb(145,0,0)"></path><path stroke-linecap="round" stroke-linejoin="round"  stroke-width="1" stroke="#ffffff" d="M 21.833333333333332 187.91666666666575 L 65.5 191.77631578947324 L 109.16666666666666 185.071090047393 L 152.83333333333334 204.750778816199 L 196.5 177.94117647058778 L 240.16666666666666 219.085027726433 L 283.8333333333333 216.893865628044 L 327.49999999999994 193.00870511425524 L 371.16666666666663 167.36680327868876 L 414.8333333333333 164.82371794871676 L 458.49999999999994 176.20798319327776 L 502.16666666666663 184.65227817745773" fill="none"></path><path style="" class=" highcharts-tracker"  stroke-width="21" stroke="rgb(192,192,192)" stroke-opacity="0.0001" visibility="visible" stroke-linejoin="round" d="M 11.833333333333332 187.91666666666575 L 21.833333333333332 187.91666666666575 L 65.5 191.77631578947324 L 109.16666666666666 185.071090047393 L 152.83333333333334 204.750778816199 L 196.5 177.94117647058778 L 240.16666666666666 219.085027726433 L 283.8333333333333 216.893865628044 L 327.49999999999994 193.00870511425524 L 371.16666666666663 167.36680327868876 L 414.8333333333333 164.82371794871676 L 458.49999999999994 176.20798319327776 L 502.16666666666663 184.65227817745773 L 512.1666666666666 184.65227817745773" fill="none"></path></g><g clip-path="none" style="" transform="translate(66,61) scale(1 1)"  visibility="visible" class="highcharts-markers highcharts-tracker"><path stroke-width="1" stroke="#ffffff" d="M 502 180.65227817745773 L 506 188.65227817745773 498 188.65227817745773 Z" fill="#910000"></path><path stroke-width="1" stroke="#ffffff" d="M 458 172.20798319327776 L 462 180.20798319327776 454 180.20798319327776 Z" fill="#910000"></path><path stroke-width="1" stroke="#ffffff" d="M 414 160.82371794871676 L 418 168.82371794871676 410 168.82371794871676 Z" fill="#910000"></path><path stroke-width="1" stroke="#ffffff" d="M 371 163.36680327868876 L 375 171.36680327868876 367 171.36680327868876 Z" fill="#910000"></path><path stroke-width="1" stroke="#ffffff" d="M 327 189.00870511425524 L 331 197.00870511425524 323 197.00870511425524 Z" fill="#910000"></path><path stroke-width="1" stroke="#ffffff" d="M 283 212.893865628044 L 287 220.893865628044 279 220.893865628044 Z" fill="#910000"></path><path stroke-width="1" stroke="#ffffff" d="M 240 215.085027726433 L 244 223.085027726433 236 223.085027726433 Z" fill="#910000"></path><path stroke-width="1" stroke="#ffffff" d="M 196 173.94117647058778 L 200 181.94117647058778 192 181.94117647058778 Z" fill="#910000"></path><path stroke-width="1" stroke="#ffffff" d="M 152 200.750778816199 L 156 208.750778816199 148 208.750778816199 Z" fill="#910000"></path><path stroke-width="1" stroke="#ffffff" d="M 109 181.071090047393 L 113 189.071090047393 105 189.071090047393 Z" fill="#910000"></path><path stroke-width="1" stroke="#ffffff" d="M 65 187.77631578947324 L 69 195.77631578947324 61 195.77631578947324 Z" fill="#910000"></path><path stroke-width="1" stroke="#ffffff" d="M 21 183.91666666666575 L 25 191.91666666666575 17 191.91666666666575 Z" fill="#910000"></path></g></g><text  class="highcharts-title" text-anchor="middle" style="font-family:'lucida grande', 'lucida sans unicode', verdana, arial, helvetica, sans-serif;font-size:16px;color:#274b6d;fill:#274b6d;" y="25" x="300"><tspan x="300">Delež Judov Murske Sobote, Lendave, Beltincev in drugih</tspan><tspan x="300" dy="16">prekmurskih vasi med leti 1793 in 1937, v %</tspan></text><g transform="translate(105,359)"  class="highcharts-legend"><rect visibility="visible" stroke-width="1" stroke="#909090" height="24" width="389" y="0.5" x="0.5" fill="none" ry="5" rx="5"></rect><g ><g><g transform="translate(8,3)"  class="highcharts-legend-item"><text  text-anchor="start" style="font-family:'lucida grande', 'lucida sans unicode', verdana, arial, helvetica, sans-serif;font-size:12px;cursor:pointer;color:#274b6d;fill:#274b6d;" y="15" x="21"><tspan x="21">okoliške vasi</tspan></text><rect  height="12" width="16" y="4" x="0" fill="#2f7ed8" ry="2" rx="2"></rect></g><g transform="translate(115.75,3)"  class="highcharts-legend-item"><text  text-anchor="start" style="font-family:'lucida grande', 'lucida sans unicode', verdana, arial, helvetica, sans-serif;font-size:12px;cursor:pointer;color:#274b6d;fill:#274b6d;" y="15" x="21"><tspan x="21">Beltinci</tspan></text><rect  height="12" width="16" y="4" x="0" fill="#0d233a" ry="2" rx="2"></rect></g><g transform="translate(189.66796875,3)"  class="highcharts-legend-item"><text  text-anchor="start" style="font-family:'lucida grande', 'lucida sans unicode', verdana, arial, helvetica, sans-serif;font-size:12px;cursor:pointer;color:#274b6d;fill:#274b6d;" y="15" x="21"><tspan x="21">Murska Sobota</tspan></text><rect  height="12" width="16" y="4" x="0" fill="#8bbc21" ry="2" rx="2"></rect></g><g transform="translate(309.66796875,3)"  class="highcharts-legend-item"><text  text-anchor="start" style="font-family:'lucida grande', 'lucida sans unicode', verdana, arial, helvetica, sans-serif;font-size:12px;cursor:pointer;color:#274b6d;fill:#274b6d;" y="15" x="21"><tspan x="21">Lendava</tspan></text><rect  height="12" width="16" y="4" x="0" fill="#910000" ry="2" rx="2"></rect></g></g></g></g><g  class="highcharts-axis-labels"><text opacity="1" text-anchor="middle" style="font-family:'lucida grande', 'lucida sans unicode', verdana, arial, helvetica, sans-serif;font-size:11px;color:#666;cursor:default;line-height:14px;fill:#666;" y="350" x="87.83333333333333"><tspan x="87.83333333333333">1778</tspan></text><text opacity="1" text-anchor="middle" style="font-family:'lucida grande', 'lucida sans unicode', verdana, arial, helvetica, sans-serif;font-size:11px;color:#666;cursor:default;line-height:14px;fill:#666;" y="350" x="131.5"><tspan x="131.5">1793</tspan></text><text opacity="1" text-anchor="middle" style="font-family:'lucida grande', 'lucida sans unicode', verdana, arial, helvetica, sans-serif;font-size:11px;color:#666;cursor:default;line-height:14px;fill:#666;" y="350" x="175.16666666666666"><tspan x="175.16666666666666">1812</tspan></text><text opacity="1" text-anchor="middle" style="font-family:'lucida grande', 'lucida sans unicode', verdana, arial, helvetica, sans-serif;font-size:11px;color:#666;cursor:default;line-height:14px;fill:#666;" y="350" x="218.83333333333334"><tspan x="218.83333333333334">1836</tspan></text><text opacity="1" text-anchor="middle" style="font-family:'lucida grande', 'lucida sans unicode', verdana, arial, helvetica, sans-serif;font-size:11px;color:#666;cursor:default;line-height:14px;fill:#666;" y="350" x="262.5"><tspan x="262.5">1846</tspan></text><text opacity="1" text-anchor="middle" style="font-family:'lucida grande', 'lucida sans unicode', verdana, arial, helvetica, sans-serif;font-size:11px;color:#666;cursor:default;line-height:14px;fill:#666;" y="350" x="306.16666666666663"><tspan x="306.16666666666663">1854</tspan></text><text opacity="1" text-anchor="middle" style="font-family:'lucida grande', 'lucida sans unicode', verdana, arial, helvetica, sans-serif;font-size:11px;color:#666;cursor:default;line-height:14px;fill:#666;" y="350" x="349.8333333333333"><tspan x="349.8333333333333">1880</tspan></text><text opacity="1" text-anchor="middle" style="font-family:'lucida grande', 'lucida sans unicode', verdana, arial, helvetica, sans-serif;font-size:11px;color:#666;cursor:default;line-height:14px;fill:#666;" y="350" x="393.49999999999994"><tspan x="393.49999999999994">1890</tspan></text><text opacity="1" text-anchor="middle" style="font-family:'lucida grande', 'lucida sans unicode', verdana, arial, helvetica, sans-serif;font-size:11px;color:#666;cursor:default;line-height:14px;fill:#666;" y="350" x="437.16666666666663"><tspan x="437.16666666666663">1900</tspan></text><text opacity="1" text-anchor="middle" style="font-family:'lucida grande', 'lucida sans unicode', verdana, arial, helvetica, sans-serif;font-size:11px;color:#666;cursor:default;line-height:14px;fill:#666;" y="350" x="480.8333333333333"><tspan x="480.8333333333333">1910</tspan></text><text opacity="1" text-anchor="middle" style="font-family:'lucida grande', 'lucida sans unicode', verdana, arial, helvetica, sans-serif;font-size:11px;color:#666;cursor:default;line-height:14px;fill:#666;" y="350" x="524.5"><tspan x="524.5">1921</tspan></text><text opacity="1" text-anchor="middle" style="font-family:'lucida grande', 'lucida sans unicode', verdana, arial, helvetica, sans-serif;font-size:11px;color:#666;cursor:default;line-height:14px;fill:#666;" y="350" x="568.1666666666666"><tspan x="568.1666666666666">1931</tspan></text></g><g  class="highcharts-axis-labels"><text opacity="1" text-anchor="end" style="font-family:'lucida grande', 'lucida sans unicode', verdana, arial, helvetica, sans-serif;font-size:11px;color:#666;cursor:default;line-height:14px;fill:#666;" y="341.291015625" x="58"><tspan x="58">0</tspan></text><text opacity="1" text-anchor="end" style="font-family:'lucida grande', 'lucida sans unicode', verdana, arial, helvetica, sans-serif;font-size:11px;color:#666;cursor:default;line-height:14px;fill:#666;" y="66.291015625" x="58"><tspan x="58">100</tspan></text><text opacity="1" text-anchor="end" style="font-family:'lucida grande', 'lucida sans unicode', verdana, arial, helvetica, sans-serif;font-size:11px;color:#666;cursor:default;line-height:14px;fill:#666;" y="272.541015625" x="58"><tspan x="58">25</tspan></text><text opacity="1" text-anchor="end" style="font-family:'lucida grande', 'lucida sans unicode', verdana, arial, helvetica, sans-serif;font-size:11px;color:#666;cursor:default;line-height:14px;fill:#666;" y="203.791015625" x="58"><tspan x="58">50</tspan></text><text opacity="1" text-anchor="end" style="font-family:'lucida grande', 'lucida sans unicode', verdana, arial, helvetica, sans-serif;font-size:11px;color:#666;cursor:default;line-height:14px;fill:#666;" y="135.041015625" x="58"><tspan x="58">75</tspan></text></g><g transform="translate(0,-999)" style="cursor:default;padding:0;white-space:nowrap;"  class="highcharts-tooltip"><rect transform="translate(1, 1)" stroke-width="5" stroke-opacity="0.049999999999999996" stroke="black"  fill-opacity="0.85" height="16" width="16" y="0.5" x="0.5" fill="none" ry="3" rx="3"></rect><rect transform="translate(1, 1)" stroke-width="3" stroke-opacity="0.09999999999999999" stroke="black"  fill-opacity="0.85" height="16" width="16" y="0.5" x="0.5" fill="none" ry="3" rx="3"></rect><rect transform="translate(1, 1)" stroke-width="1" stroke-opacity="0.15" stroke="black"  fill-opacity="0.85" height="16" width="16" y="0.5" x="0.5" fill="none" ry="3" rx="3"></rect><rect fill-opacity="0.85" height="16" width="16" y="0.5" x="0.5" fill="rgb(255,255,255)" ry="3" rx="3"></rect><text  style="font-family:'lucida grande', 'lucida sans unicode', verdana, arial, helvetica, sans-serif;font-size:12px;color:#333333;fill:#333333;" y="21" x="8"></text></g></svg>